<svg width="16" height="16" viewBox="0 0 16 16" fill="none" xmlns="http://www.w3.org/2000/svg">
<g clip-path="url(#clip0_303_8355)">
<path d="M4.28014 1.24008C3.68681 1.24008 3.47348 1.14008 3.28014 1.31341C3.21348 1.41341 3.17348 1.52008 3.16014 1.64008C3.16014 1.71341 3.06681 2.34674 3.34014 2.52674C3.44014 2.56674 3.55348 2.59341 3.66681 2.59341C4.09348 2.62674 6.16681 2.49341 6.18681 2.49341C7.66681 2.54008 8.55348 2.38008 9.70015 2.35341C10.5935 2.33341 11.3601 2.44008 11.9335 2.45341C12.2735 2.46008 12.5135 2.45341 12.5135 2.45341C12.7335 2.45341 12.8135 2.13341 12.7801 1.62008C12.7801 1.52674 12.6535 1.20008 12.5201 1.20008C12.3868 1.20008 11.7735 1.17341 10.4535 1.12674C9.72681 1.10008 8.54014 1.14674 7.78681 1.16008C6.96014 1.17341 6.20681 1.27341 5.86014 1.25341L4.27348 1.24008H4.28014Z" fill="#502314"/>
<path d="M14.5867 8.05359C14.5534 7.78693 14.5 7.52693 14.4267 7.27359C14.3534 6.87359 14.3534 6.79359 14.2734 6.46026C14.0934 5.80026 14.1 5.58693 13.98 5.02026C13.9667 4.96026 13.9134 4.46026 13.8067 4.02693C13.7934 3.96026 13.7734 3.90026 13.74 3.84693C13.6267 3.65359 13.4467 3.50026 13.2267 3.43359C12.84 3.33359 12.4334 3.31359 12.0334 3.37359C11.2534 3.37359 10.5467 3.41359 9.30671 3.38026C8.59338 3.36026 8.12671 3.39359 6.84671 3.42693C5.28671 3.46693 5.00004 3.47359 4.11338 3.42693C3.64004 3.38026 3.16004 3.38026 2.68004 3.42693C2.56004 3.42693 2.44004 3.47359 2.34671 3.54693C2.26004 3.62693 2.19338 3.73359 2.17338 3.85359C2.10004 4.11359 2.05338 4.38693 2.03338 4.66026C2.02671 5.17359 1.96004 5.68026 1.84671 6.18026C1.78004 6.44693 1.76671 6.41359 1.66671 6.79359C1.44671 7.62026 1.56004 7.60693 1.39338 8.20693C1.34671 8.40693 1.32671 8.60693 1.33338 8.80693C1.30671 8.99359 1.43338 9.16693 1.62004 9.19359C1.64004 9.19359 1.66004 9.19359 1.68004 9.19359H2.25338C2.24671 9.74693 2.24671 10.2803 2.27338 10.7403C2.30671 11.2736 2.22671 11.8069 2.28671 12.3403C2.34004 12.8203 2.28671 13.4936 2.32671 13.9803C2.32671 14.4203 2.68004 14.7803 3.12004 14.7803C3.15338 14.7803 3.18004 14.7803 3.21338 14.7803C6.02004 14.7803 8.03338 14.9403 10.5134 14.8469L10.8134 14.8336V14.2069C10.8134 13.4669 10.8467 12.3669 10.8134 11.1803C10.8134 11.1669 10.7867 9.64026 10.8067 9.42026C10.8067 9.36026 10.82 9.30693 10.84 9.25359C10.9267 9.22026 11 9.26693 11.08 9.25359C11.16 9.24026 11.24 9.24693 11.32 9.23359C11.3534 9.23359 11.3867 9.21359 11.42 9.20026C11.4867 9.16693 11.5467 9.40026 11.5467 9.70693V11.1869C11.5467 11.4269 11.5867 14.0003 11.58 14.8003C11.7867 14.7869 12 14.7736 12.2067 14.7603C12.62 14.7269 13.4334 14.7936 13.6134 14.3069C13.66 14.1536 13.68 13.9936 13.6734 13.8269V9.19359H14.3334C14.5334 9.18026 14.6867 9.00693 14.6734 8.80693C14.6734 8.80693 14.6734 8.80026 14.6734 8.79359C14.6667 8.54693 14.64 8.30026 14.5934 8.05359H14.5867ZM8.08004 12.3003C7.14004 12.3003 6.42004 12.3203 5.46671 12.3069C5.16671 12.2936 5.12004 11.5736 5.12004 10.9203C5.12004 10.6203 5.09338 10.2669 5.10671 9.96693C5.12004 9.67359 5.12671 9.44693 5.34671 9.34693C5.60671 9.22693 6.93338 9.32026 7.16004 9.30026C7.45338 9.28693 7.75338 9.28693 8.04671 9.31359C8.20671 9.32026 8.32671 9.45359 8.31338 9.61359C8.29338 10.4203 8.30004 11.2203 8.34004 12.0269C8.31338 12.1603 8.21338 12.2736 8.08004 12.3003Z" fill="#502314"/>
<path d="M3.20661 14.7801C2.77328 14.8267 2.37995 14.5201 2.32661 14.0801C2.32661 14.0467 2.32661 14.0134 2.32661 13.9867C2.28661 13.5001 2.33995 12.8267 2.28661 12.3534C2.22661 11.8201 2.30661 11.2867 2.27328 10.7534C2.24661 10.2934 2.24661 9.75341 2.25328 9.20674H1.67995C1.49328 9.20674 1.33328 9.06008 1.33328 8.87341C1.33328 8.85341 1.33328 8.83341 1.33328 8.81341C1.32661 8.61341 1.34661 8.40674 1.39328 8.21341C1.55995 7.61341 1.44661 7.62674 1.66661 6.80008C1.76661 6.42008 1.77995 6.45341 1.84661 6.18674C1.96661 5.68674 2.02661 5.18008 2.03328 4.66674C2.04661 4.39341 2.09328 4.12674 2.17328 3.86008C2.19995 3.74008 2.25995 3.63341 2.34661 3.55341C2.44661 3.48008 2.55995 3.44008 2.67995 3.43341C3.15328 3.38674 3.63328 3.38674 4.11328 3.43341C4.99995 3.47341 5.28661 3.46674 6.84661 3.43341C8.12662 3.40008 8.58661 3.37341 9.30661 3.38674C10.5466 3.41341 11.2533 3.38008 12.0333 3.38008C12.4266 3.32008 12.8333 3.34008 13.2266 3.44008C13.4399 3.51341 13.6266 3.66008 13.7399 3.85341C13.7733 3.91341 13.7933 3.97341 13.8066 4.03341C13.9133 4.46674 13.9666 4.96674 13.9799 5.02674C14.0999 5.59341 14.0933 5.80674 14.2733 6.46674C14.3466 6.80008 14.3533 6.88008 14.4266 7.28008C14.4999 7.53341 14.5533 7.80008 14.5933 8.06008C14.6333 8.30674 14.6599 8.55341 14.6666 8.80674C14.6866 9.00674 14.5399 9.18674 14.3333 9.20674C14.3333 9.20674 14.3266 9.20674 14.3199 9.20674H13.6599V13.8401C13.6666 14.0001 13.6533 14.1601 13.5999 14.3201C13.4199 14.8067 12.5999 14.7401 12.1933 14.7734C11.9866 14.7934 11.7733 14.8067 11.5666 14.8134C11.5799 14.0134 11.5333 11.4401 11.5333 11.2001V9.72008C11.5333 9.41341 11.4733 9.18008 11.4066 9.21341C11.3733 9.22674 11.3399 9.24008 11.3066 9.24674C11.2266 9.26008 11.1399 9.25341 11.0666 9.26674C11.0333 9.26674 10.9999 9.26674 10.9666 9.26674C10.9199 9.25341 10.8733 9.26008 10.8266 9.27341C10.8066 9.32674 10.7933 9.38008 10.7933 9.44008C10.7733 9.65341 10.7999 11.1867 10.7999 11.2001C10.8333 12.3867 10.7999 13.4867 10.7999 14.2267V14.8534L10.4999 14.8667C9.95328 14.8867 9.42661 14.8934 8.90661 14.8934C7.08661 14.8934 5.38661 14.7934 3.19995 14.7934L3.20661 14.7801ZM5.34661 9.35341C5.13328 9.45341 5.12661 9.68008 5.10661 9.97341C5.09328 10.2734 5.11995 10.6267 5.11995 10.9267C5.11995 11.5734 5.15995 12.3001 5.46661 12.3134C6.05328 12.3201 6.55328 12.3134 7.07328 12.3134C7.39328 12.3134 7.71995 12.3134 8.08661 12.3134C8.21995 12.2801 8.32661 12.1734 8.34661 12.0401C8.30661 11.2334 8.29995 10.4334 8.31995 9.62674C8.33328 9.46674 8.21328 9.33341 8.05328 9.32674C7.75995 9.30674 7.45995 9.30008 7.16661 9.31341C7.08661 9.32008 6.87328 9.31341 6.61995 9.31341C6.44661 9.31341 6.25328 9.30674 6.07328 9.30674C5.83328 9.29341 5.58661 9.30674 5.35328 9.36674L5.34661 9.35341ZM3.66661 2.59341C3.55328 2.59341 3.44661 2.57341 3.33995 2.52674C3.06661 2.34008 3.15995 1.71341 3.15995 1.64008C3.17328 1.52674 3.21328 1.41341 3.27995 1.31341C3.47328 1.14008 3.67995 1.23341 4.27995 1.24008L5.85995 1.25341C6.20661 1.27341 6.95328 1.18008 7.78661 1.16008C8.53995 1.14674 9.72661 1.10008 10.4533 1.12674C11.7733 1.18008 12.3999 1.20008 12.5199 1.20008C12.6399 1.20008 12.7733 1.52674 12.7799 1.61341C12.8133 2.12674 12.7333 2.44674 12.5133 2.44674C12.5133 2.44674 12.2666 2.46008 11.9333 2.44674C11.3599 2.43341 10.5933 2.32008 9.69995 2.34674C8.55995 2.37341 7.67328 2.54008 6.18661 2.49341C6.17995 2.49341 5.75995 2.52008 5.25995 2.54674C4.75995 2.57341 4.18661 2.60008 3.85995 2.60008C3.77995 2.60008 3.71328 2.60008 3.67328 2.60008L3.66661 2.59341Z" fill="#502314"/>
</g>
<defs>
<clipPath id="clip0_303_8355">
<rect width="16" height="16" fill="white"/>
</clipPath>
</defs>
</svg>
