<svg width="220" height="220" viewBox="0 0 220 220" fill="none" xmlns="http://www.w3.org/2000/svg">
<path d="M112.909 8.72727L111.705 9.06818C111.629 8.86742 111.517 8.67235 111.369 8.48295C111.225 8.28977 111.028 8.13068 110.778 8.00568C110.528 7.88068 110.208 7.81818 109.818 7.81818C109.284 7.81818 108.839 7.94129 108.483 8.1875C108.131 8.42992 107.955 8.73864 107.955 9.11364C107.955 9.44697 108.076 9.71023 108.318 9.90341C108.561 10.0966 108.939 10.2576 109.455 10.3864L110.75 10.7045C111.53 10.8939 112.112 11.1837 112.494 11.5739C112.877 11.9602 113.068 12.4583 113.068 13.0682C113.068 13.5682 112.924 14.0152 112.636 14.4091C112.352 14.803 111.955 15.1136 111.443 15.3409C110.932 15.5682 110.337 15.6818 109.659 15.6818C108.769 15.6818 108.032 15.4886 107.449 15.1023C106.865 14.7159 106.496 14.1515 106.341 13.4091L107.614 13.0909C107.735 13.5606 107.964 13.9129 108.301 14.1477C108.642 14.3826 109.087 14.5 109.636 14.5C110.261 14.5 110.758 14.3674 111.125 14.1023C111.496 13.8333 111.682 13.5114 111.682 13.1364C111.682 12.8333 111.576 12.5795 111.364 12.375C111.151 12.1667 110.826 12.0114 110.386 11.9091L108.932 11.5682C108.133 11.3788 107.545 11.0852 107.17 10.6875C106.799 10.286 106.614 9.78409 106.614 9.18182C106.614 8.68939 106.752 8.25379 107.028 7.875C107.309 7.49621 107.689 7.19886 108.17 6.98295C108.655 6.76705 109.205 6.65909 109.818 6.65909C110.682 6.65909 111.36 6.84848 111.852 7.22727C112.348 7.60606 112.701 8.10606 112.909 8.72727Z" fill="black"/>
<path d="M126.647 17.1621C125.841 17.02 125.181 16.7074 124.666 16.2243C124.151 15.7412 123.796 15.1382 123.6 14.4152C123.405 13.6922 123.382 12.9017 123.534 12.0438C123.688 11.1709 123.984 10.4288 124.422 9.81766C124.865 9.20343 125.409 8.75891 126.054 8.48409C126.703 8.20621 127.415 8.13568 128.191 8.27249C128.795 8.37905 129.32 8.58699 129.766 8.89632C130.211 9.20565 130.553 9.58905 130.792 10.0465C131.03 10.504 131.14 11.0079 131.12 11.5582L129.799 11.3254C129.767 10.9159 129.605 10.5295 129.311 10.1662C129.022 9.7998 128.586 9.56529 128.004 9.46268C127.49 9.37191 127.014 9.42661 126.579 9.62679C126.148 9.8239 125.782 10.1458 125.48 10.5926C125.183 11.0364 124.977 11.5828 124.862 12.2318C124.745 12.8958 124.748 13.4925 124.87 14.0217C124.995 14.5516 125.226 14.9866 125.563 15.3266C125.903 15.6674 126.334 15.8838 126.856 15.9758C127.199 16.0364 127.521 16.0316 127.822 15.9616C128.123 15.8915 128.39 15.7617 128.623 15.5721C128.857 15.3825 129.042 15.1382 129.179 14.8393L130.5 15.0722C130.336 15.5663 130.071 15.9908 129.704 16.3454C129.342 16.697 128.9 16.9497 128.376 17.1036C127.857 17.2544 127.281 17.2739 126.647 17.1621Z" fill="black"/>
<path d="M140.655 20.5927L143.64 12.3918L144.857 12.8348L144.406 14.0735L144.492 14.1046C144.789 13.7533 145.179 13.5225 145.663 13.4123C146.146 13.3021 146.634 13.3363 147.125 13.5151C147.218 13.5488 147.333 13.5927 147.47 13.6468C147.608 13.7009 147.711 13.7444 147.779 13.7774L147.313 15.0588C147.274 15.0326 147.182 14.981 147.037 14.9039C146.896 14.8246 146.742 14.7545 146.575 14.6936C146.177 14.5485 145.79 14.5026 145.416 14.5559C145.047 14.6069 144.718 14.7453 144.43 14.9711C144.148 15.1946 143.939 15.4915 143.804 15.8617L141.915 21.0514L140.655 20.5927Z" fill="black"/>
<path d="M156.962 28.2044C156.28 27.8105 155.775 27.3025 155.447 26.6804C155.123 26.0601 154.985 25.3747 155.034 24.6242C155.085 23.8755 155.337 23.1108 155.787 22.33C156.242 21.5427 156.782 20.9379 157.406 20.5155C158.034 20.0949 158.697 19.87 159.396 19.8407C160.099 19.8133 160.791 19.9966 161.474 20.3905C162.156 20.7845 162.659 21.2915 162.983 21.9118C163.311 22.5339 163.448 23.2209 163.394 23.9729C163.344 24.7267 163.092 25.4973 162.637 26.2846C162.186 27.0653 161.648 27.6643 161.022 28.0816C160.4 28.5007 159.737 28.724 159.035 28.7514C158.335 28.7807 157.645 28.5984 156.962 28.2044ZM157.564 27.1613C158.083 27.4605 158.586 27.5739 159.074 27.5013C159.562 27.4288 160.011 27.2224 160.422 26.8822C160.833 26.542 161.184 26.1193 161.476 25.6141C161.767 25.109 161.959 24.5918 162.05 24.0627C162.141 23.5336 162.097 23.038 161.918 22.5758C161.738 22.1136 161.39 21.7329 160.871 21.4337C160.353 21.1344 159.849 21.0227 159.359 21.0985C158.869 21.1744 158.418 21.384 158.005 21.7275C157.593 22.071 157.24 22.4953 156.949 23.0005C156.657 23.5057 156.467 24.0212 156.377 24.547C156.288 25.0728 156.334 25.5652 156.515 26.0241C156.696 26.483 157.046 26.862 157.564 27.1613Z" fill="black"/>
<path d="M178.658 29.06L171.179 37.974L170.151 37.1121L177.631 28.1981L178.658 29.06Z" fill="black"/>
<path d="M191.67 42.2121L182.756 49.6918L181.894 48.6646L190.808 41.1849L191.67 42.2121Z" fill="black"/>
<path d="M198.467 77.2928C198.218 76.6094 198.171 75.9432 198.326 75.2943C198.484 74.6441 198.827 74.056 199.353 73.53C199.882 73.0026 200.581 72.5809 201.45 72.2648C202.311 71.9513 203.112 71.8269 203.853 71.8918C204.595 71.9566 205.234 72.1896 205.771 72.5907C206.308 72.9918 206.702 73.5377 206.953 74.2282C207.148 74.7621 207.212 75.2163 207.147 75.5908C207.086 75.9675 206.974 76.2785 206.809 76.5238C206.649 76.7715 206.515 76.9675 206.406 77.1118L206.445 77.2186L210.482 75.7495L210.94 77.0095L200.006 80.9894L199.563 79.7721L200.823 79.3134L200.768 79.1639C200.585 79.1258 200.349 79.0628 200.059 78.9748C199.772 78.8856 199.482 78.715 199.189 78.463C198.899 78.2097 198.659 77.8196 198.467 77.2928ZM199.661 77.0517C199.845 77.5571 200.132 77.9363 200.522 78.1893C200.916 78.4409 201.381 78.572 201.917 78.5825C202.457 78.5918 203.036 78.4837 203.655 78.2583C204.268 78.0354 204.771 77.7515 205.165 77.4064C205.563 77.06 205.827 76.6657 205.956 76.2236C206.089 75.7802 206.062 75.3022 205.876 74.7897C205.681 74.2558 205.382 73.8607 204.979 73.6045C204.58 73.3506 204.115 73.2195 203.584 73.2113C203.058 73.2053 202.506 73.3072 201.93 73.5171C201.346 73.7295 200.848 74.0116 200.436 74.3631C200.028 74.717 199.748 75.1213 199.595 75.576C199.447 76.033 199.469 76.5249 199.661 77.0517Z" fill="black"/>
<path d="M202.846 93.398C202.709 92.6221 202.774 91.9087 203.04 91.258C203.306 90.6109 203.743 90.0647 204.349 89.6194C204.956 89.1777 205.703 88.8787 206.591 88.7221C207.486 88.5642 208.296 88.5887 209.021 88.7955C209.747 89.006 210.345 89.3697 210.817 89.8865C211.29 90.4071 211.595 91.0553 211.731 91.8312C211.868 92.6071 211.803 93.3186 211.537 93.9657C211.271 94.6164 210.832 95.163 210.222 95.6052C209.612 96.0512 208.859 96.3532 207.964 96.511C207.076 96.6676 206.271 96.6403 205.549 96.4291C204.828 96.2216 204.231 95.8576 203.759 95.3371C203.287 94.8203 202.983 94.1739 202.846 93.398ZM204.032 93.1888C204.136 93.7782 204.372 94.2365 204.742 94.5637C205.111 94.891 205.558 95.1025 206.083 95.1985C206.607 95.2945 207.157 95.2918 207.731 95.1905C208.306 95.0892 208.825 94.9034 209.289 94.6332C209.753 94.3629 210.104 94.0105 210.343 93.5761C210.582 93.1417 210.649 92.6298 210.545 92.0404C210.441 91.451 210.203 90.993 209.83 90.6665C209.457 90.3399 209.006 90.129 208.478 90.0337C207.949 89.9384 207.398 89.9414 206.823 90.0426C206.249 90.1439 205.732 90.3294 205.272 90.599C204.811 90.8686 204.464 91.2203 204.229 91.6541C203.994 92.0879 203.928 92.5994 204.032 93.1888Z" fill="black"/>
<path d="M204.5 106.704L213.227 104.045V105.454L206.545 107.341V107.432L213.227 109.295V110.727L206.568 112.568V112.659L213.227 114.545V115.954L204.5 113.295V111.977L211.205 110.068V109.932L204.5 108.023V106.704Z" fill="black"/>
<path d="M208.657 124.926L203.487 124.015L203.719 122.694L212.314 124.21L212.089 125.486L210.746 125.249L210.726 125.361C211.127 125.639 211.424 126.007 211.617 126.464C211.813 126.922 211.854 127.475 211.739 128.124C211.637 128.706 211.428 129.194 211.112 129.588C210.8 129.983 210.382 130.26 209.858 130.417C209.338 130.576 208.712 130.59 207.981 130.461L202.52 129.498L202.752 128.178L208.124 129.125C208.799 129.244 209.356 129.162 209.795 128.877C210.237 128.594 210.512 128.146 210.62 127.534C210.694 127.113 210.669 126.72 210.545 126.356C210.42 125.995 210.199 125.689 209.882 125.437C209.565 125.185 209.157 125.015 208.657 124.926Z" fill="black"/>
<path d="M196.25 163.156L196.557 161.942C196.769 161.977 196.994 161.978 197.232 161.944C197.471 161.916 197.707 161.825 197.94 161.671C198.174 161.517 198.388 161.271 198.583 160.933C198.85 160.471 198.966 160.024 198.931 159.592C198.897 159.166 198.718 158.859 198.393 158.672C198.104 158.505 197.816 158.478 197.527 158.592C197.239 158.705 196.91 158.953 196.541 159.334L195.617 160.297C195.063 160.878 194.522 161.237 193.992 161.373C193.466 161.511 192.939 161.428 192.411 161.123C191.978 160.873 191.663 160.525 191.466 160.079C191.267 159.636 191.197 159.136 191.256 158.579C191.314 158.023 191.513 157.451 191.852 156.864C192.297 156.093 192.833 155.551 193.459 155.239C194.086 154.927 194.759 154.89 195.48 155.127L195.119 156.388C194.652 156.258 194.232 156.28 193.86 156.455C193.486 156.633 193.162 156.959 192.887 157.435C192.575 157.976 192.441 158.472 192.487 158.923C192.535 159.379 192.721 159.701 193.045 159.888C193.308 160.04 193.581 160.075 193.864 159.993C194.15 159.914 194.448 159.709 194.756 159.38L195.779 158.291C196.342 157.693 196.89 157.332 197.422 157.206C197.955 157.085 198.483 157.175 199.004 157.476C199.431 157.723 199.739 158.06 199.929 158.489C200.116 158.921 200.184 159.399 200.13 159.924C200.075 160.452 199.894 160.982 199.587 161.513C199.155 162.261 198.652 162.753 198.078 162.99C197.501 163.231 196.892 163.286 196.25 163.156Z" fill="black"/>
<path d="M182.077 170.835C182.602 170.209 183.203 169.793 183.879 169.589C184.555 169.384 185.255 169.378 185.979 169.57C186.703 169.763 187.398 170.139 188.066 170.699C188.745 171.268 189.239 171.896 189.549 172.581C189.86 173.272 189.973 173.965 189.888 174.661C189.805 175.362 189.509 176.014 189.003 176.618C188.609 177.088 188.166 177.438 187.675 177.67C187.185 177.901 186.682 178.005 186.166 177.983C185.651 177.961 185.16 177.804 184.693 177.511L185.555 176.484C185.926 176.661 186.341 176.713 186.803 176.641C187.265 176.574 187.686 176.314 188.066 175.861C188.402 175.46 188.592 175.022 188.636 174.545C188.681 174.073 188.585 173.595 188.349 173.11C188.114 172.63 187.743 172.179 187.239 171.755C186.722 171.322 186.204 171.025 185.685 170.867C185.163 170.711 184.671 170.693 184.208 170.814C183.743 170.938 183.34 171.203 182.999 171.61C182.775 171.877 182.618 172.158 182.529 172.453C182.439 172.749 182.418 173.045 182.465 173.342C182.513 173.639 182.632 173.922 182.822 174.19L181.96 175.217C181.614 174.828 181.379 174.386 181.255 173.892C181.132 173.402 181.134 172.893 181.262 172.363C181.391 171.838 181.663 171.329 182.077 170.835Z" fill="black"/>
<path d="M172.101 181.252L177.711 187.937L176.719 188.77L175.872 187.76L175.802 187.818C175.958 188.252 175.962 188.705 175.816 189.179C175.67 189.653 175.396 190.058 174.996 190.394C174.92 190.457 174.825 190.535 174.709 190.627C174.594 190.719 174.504 190.786 174.442 190.829L173.565 189.784C173.607 189.764 173.698 189.71 173.837 189.623C173.976 189.541 174.114 189.443 174.25 189.328C174.575 189.055 174.808 188.744 174.949 188.393C175.089 188.048 175.134 187.694 175.082 187.332C175.03 186.975 174.877 186.646 174.624 186.344L171.074 182.114L172.101 181.252Z" fill="black"/>
<path d="M157.356 191.568C158.038 191.174 158.731 190.991 159.433 191.018C160.132 191.048 160.795 191.271 161.421 191.688C162.043 192.107 162.58 192.707 163.031 193.488C163.485 194.275 163.739 195.045 163.793 195.797C163.843 196.551 163.706 197.238 163.382 197.858C163.054 198.48 162.55 198.988 161.867 199.382C161.185 199.776 160.494 199.958 159.795 199.929C159.092 199.902 158.429 199.677 157.804 199.254C157.177 198.834 156.636 198.23 156.181 197.443C155.73 196.662 155.481 195.896 155.432 195.146C155.381 194.397 155.518 193.712 155.846 193.089C156.17 192.469 156.674 191.962 157.356 191.568ZM157.958 192.611C157.44 192.911 157.09 193.29 156.909 193.749C156.728 194.208 156.682 194.7 156.771 195.226C156.86 195.751 157.051 196.267 157.342 196.772C157.634 197.277 157.986 197.702 158.399 198.045C158.811 198.389 159.263 198.598 159.753 198.674C160.243 198.75 160.747 198.638 161.265 198.339C161.783 198.04 162.132 197.659 162.311 197.197C162.491 196.735 162.535 196.239 162.444 195.71C162.352 195.181 162.161 194.664 161.869 194.159C161.578 193.653 161.226 193.231 160.816 192.89C160.405 192.55 159.956 192.344 159.468 192.271C158.98 192.199 158.476 192.312 157.958 192.611Z" fill="black"/>
<path d="M145.767 209.93L141.787 198.995L143.047 198.537L147.027 209.471L145.767 209.93Z" fill="black"/>
<path d="M127.871 214.622L125.85 203.163L127.171 202.93L129.191 214.39L127.871 214.622Z" fill="black"/>
<path d="M94.0918 202.968C94.808 203.094 95.4084 203.387 95.893 203.845C96.3769 204.308 96.7151 204.898 96.9076 205.617C97.0995 206.339 97.1152 207.155 96.9547 208.065C96.7955 208.968 96.5026 209.724 96.0759 210.334C95.6492 210.943 95.1279 211.38 94.512 211.644C93.8961 211.909 93.2263 211.977 92.5026 211.85C91.9431 211.751 91.5175 211.58 91.2258 211.336C90.9298 211.095 90.7167 210.843 90.5865 210.577C90.452 210.315 90.3494 210.101 90.2787 209.934L90.1668 209.915L89.4209 214.145L88.1004 213.912L90.121 202.453L91.3968 202.677L91.1639 203.998L91.3206 204.026C91.4452 203.886 91.6181 203.713 91.8392 203.506C92.0597 203.302 92.3524 203.136 92.7173 203.008C93.0815 202.884 93.5397 202.871 94.0918 202.968ZM93.7036 204.123C93.1739 204.029 92.7019 204.088 92.2876 204.3C91.8727 204.515 91.5267 204.852 91.2497 205.311C90.9719 205.774 90.7759 206.33 90.6614 206.979C90.5483 207.62 90.5425 208.198 90.6442 208.712C90.7452 209.23 90.9548 209.656 91.273 209.989C91.5906 210.325 92.018 210.541 92.5551 210.636C93.1147 210.735 93.6063 210.673 94.03 210.452C94.4493 210.233 94.7952 209.896 95.0679 209.44C95.3362 208.988 95.5237 208.459 95.6302 207.855C95.7381 207.243 95.7428 206.671 95.6445 206.138C95.5417 205.608 95.3316 205.164 95.0143 204.804C94.6926 204.447 94.2557 204.22 93.7036 204.123Z" fill="black"/>
<path d="M77.9548 198.708C78.6951 198.977 79.2806 199.39 79.7112 199.946C80.1382 200.5 80.393 201.151 80.4756 201.899C80.5547 202.645 80.4401 203.442 80.1317 204.289C79.8208 205.143 79.3945 205.833 78.853 206.357C78.3078 206.88 77.6935 207.217 77.01 207.367C76.3229 207.516 75.6092 207.456 74.8688 207.186C74.1284 206.917 73.5447 206.505 73.1177 205.95C72.6872 205.395 72.433 204.742 72.3552 203.992C72.2739 203.241 72.3887 202.438 72.6996 201.584C73.0079 200.737 73.434 200.053 73.9779 199.534C74.5181 199.013 75.1318 198.678 75.8189 198.529C76.5024 198.379 77.2144 198.438 77.9548 198.708ZM77.5428 199.84C76.9804 199.635 76.4652 199.611 75.9972 199.767C75.5292 199.923 75.1225 200.204 74.777 200.611C74.4316 201.017 74.1592 201.494 73.9596 202.042C73.7601 202.591 73.6614 203.133 73.6635 203.67C73.6656 204.207 73.7951 204.687 74.0519 205.111C74.3088 205.535 74.7184 205.85 75.2808 206.054C75.8432 206.259 76.359 206.282 76.8283 206.122C77.2976 205.962 77.7056 205.677 78.0523 205.267C78.3991 204.857 78.6722 204.378 78.8717 203.83C79.0712 203.282 79.1692 202.741 79.1658 202.208C79.1624 201.675 79.0317 201.198 78.7736 200.777C78.5154 200.357 78.1052 200.044 77.5428 199.84Z" fill="black"/>
<path d="M65.6039 193.487L63.5431 202.375L62.3228 201.67L64.0301 194.94L63.9514 194.895L58.9965 199.75L57.7565 199.034L59.4918 192.346L59.4131 192.301L54.4499 197.125L53.2296 196.42L59.896 190.192L61.0376 190.851L59.3387 197.612L59.4568 197.68L64.4624 192.828L65.6039 193.487Z" fill="black"/>
<path d="M47.7448 187.976L51.1195 183.954L52.1466 184.816L46.5369 191.502L45.5445 190.669L46.421 189.624L46.334 189.551C45.8924 189.759 45.4256 189.832 44.9335 189.771C44.439 189.712 43.9394 189.47 43.4345 189.047C42.9818 188.667 42.6636 188.242 42.48 187.771C42.2939 187.304 42.2635 186.803 42.389 186.271C42.5121 185.741 42.8122 185.192 43.2894 184.623L46.854 180.375L47.8812 181.237L44.3751 185.415C43.9344 185.941 43.7274 186.464 43.7543 186.986C43.7787 187.511 44.0288 187.973 44.5047 188.372C44.8326 188.648 45.1853 188.822 45.5629 188.897C45.9375 188.969 46.3133 188.931 46.6901 188.782C47.067 188.634 47.4186 188.365 47.7448 187.976Z" fill="black"/>
<path d="M20.8407 158.117L21.7382 158.99C21.6022 159.156 21.4892 159.35 21.399 159.573C21.3037 159.794 21.2644 160.044 21.2811 160.323C21.2979 160.602 21.4038 160.91 21.5989 161.248C21.8659 161.711 22.1951 162.035 22.5863 162.22C22.9724 162.404 23.3278 162.402 23.6526 162.215C23.9413 162.048 24.1086 161.811 24.1547 161.505C24.2008 161.198 24.1508 160.79 24.0048 160.279L23.6326 158.998C23.4065 158.228 23.3667 157.579 23.5133 157.053C23.6566 156.528 23.9924 156.114 24.5205 155.809C24.9535 155.559 25.4126 155.46 25.8977 155.512C26.3809 155.561 26.8487 155.75 27.3012 156.08C27.7537 156.409 28.1495 156.867 28.4885 157.454C28.9336 158.225 29.1347 158.96 29.0917 159.658C29.0488 160.357 28.7447 160.959 28.1794 161.464L27.2675 160.521C27.6136 160.181 27.8041 159.807 27.8389 159.397C27.8719 158.985 27.751 158.541 27.4764 158.065C27.1639 157.524 26.801 157.16 26.3876 156.975C25.9691 156.788 25.5975 156.788 25.2727 156.975C25.0103 157.127 24.8435 157.346 24.7725 157.632C24.6981 157.919 24.7265 158.279 24.8576 158.711L25.2896 160.141C25.5252 160.928 25.5646 161.583 25.4076 162.107C25.2455 162.629 24.9037 163.041 24.3821 163.342C23.9556 163.588 23.5093 163.686 23.043 163.636C22.5748 163.583 22.1269 163.402 21.6994 163.093C21.27 162.781 20.9019 162.359 20.5951 161.828C20.1632 161.08 19.9883 160.398 20.0701 159.782C20.15 159.163 20.4069 158.608 20.8407 158.117Z" fill="black"/>
<path d="M21.2766 142.002C21.5565 142.771 21.6159 143.499 21.4549 144.187C21.294 144.874 20.9493 145.483 20.421 146.014C19.8927 146.545 19.2192 146.96 18.4005 147.258C17.5676 147.561 16.7769 147.675 16.0283 147.601C15.2749 147.525 14.6181 147.276 14.0578 146.855C13.4926 146.432 13.0753 145.85 12.8058 145.11C12.5959 144.533 12.5136 143.975 12.5587 143.434C12.6039 142.894 12.7649 142.406 13.0418 141.97C13.3187 141.535 13.7004 141.189 14.1871 140.931L14.6457 142.191C14.3069 142.423 14.0536 142.757 13.8858 143.193C13.7131 143.627 13.7278 144.121 13.9299 144.676C14.1087 145.168 14.3936 145.552 14.7846 145.829C15.1708 146.103 15.6328 146.26 16.1707 146.298C16.7037 146.333 17.2799 146.239 17.8992 146.013C18.5328 145.783 19.0482 145.482 19.4455 145.112C19.8415 144.738 20.1027 144.32 20.2291 143.859C20.3542 143.394 20.3261 142.913 20.1447 142.414C20.0255 142.087 19.8604 141.811 19.6493 141.585C19.4383 141.36 19.1923 141.193 18.9113 141.086C18.6304 140.978 18.3262 140.94 17.9987 140.97L17.5401 139.71C18.0501 139.605 18.5502 139.623 19.0406 139.763C19.526 139.901 19.9662 140.158 20.3611 140.534C20.7512 140.908 21.0564 141.397 21.2766 142.002Z" fill="black"/>
<path d="M17.2435 128.156L8.64881 129.671L8.42386 128.395L9.72201 128.166L9.70623 128.077C9.25334 127.995 8.8583 127.772 8.52109 127.409C8.18388 127.045 7.9699 126.606 7.87912 126.091C7.86202 125.994 7.84251 125.873 7.82059 125.726C7.79867 125.58 7.78486 125.469 7.77916 125.393L9.12208 125.157C9.11879 125.203 9.12009 125.309 9.12599 125.473C9.1275 125.635 9.14372 125.803 9.17463 125.978C9.2483 126.396 9.40174 126.754 9.63495 127.051C9.86377 127.345 10.1479 127.56 10.4873 127.697C10.8224 127.83 11.1839 127.862 11.5718 127.794L17.0107 126.835L17.2435 128.156Z" fill="black"/>
<path d="M15.6818 110.227C15.6818 111.015 15.4943 111.706 15.1193 112.301C14.7443 112.892 14.2197 113.354 13.5455 113.688C12.8712 114.017 12.0833 114.182 11.1818 114.182C10.2727 114.182 9.47917 114.017 8.80114 113.688C8.12311 113.354 7.59659 112.892 7.22159 112.301C6.84659 111.706 6.65909 111.015 6.65909 110.227C6.65909 109.439 6.84659 108.75 7.22159 108.159C7.59659 107.564 8.12311 107.102 8.80114 106.773C9.47917 106.439 10.2727 106.273 11.1818 106.273C12.0833 106.273 12.8712 106.439 13.5455 106.773C14.2197 107.102 14.7443 107.564 15.1193 108.159C15.4943 108.75 15.6818 109.439 15.6818 110.227ZM14.4773 110.227C14.4773 109.629 14.3239 109.136 14.017 108.75C13.7102 108.364 13.3068 108.078 12.8068 107.892C12.3068 107.706 11.7652 107.614 11.1818 107.614C10.5985 107.614 10.0549 107.706 9.55114 107.892C9.04735 108.078 8.64015 108.364 8.32955 108.75C8.01894 109.136 7.86364 109.629 7.86364 110.227C7.86364 110.826 8.01894 111.318 8.32955 111.705C8.64015 112.091 9.04735 112.377 9.55114 112.562C10.0549 112.748 10.5985 112.841 11.1818 112.841C11.7652 112.841 12.3068 112.748 12.8068 112.562C13.3068 112.377 13.7102 112.091 14.017 111.705C14.3239 111.318 14.4773 110.826 14.4773 110.227Z" fill="black"/>
<path d="M5.57475 91.0101L17.0343 93.0307L16.8015 94.3512L5.3419 92.3306L5.57475 91.0101Z" fill="black"/>
<path d="M10.4588 73.1653L21.3934 77.1452L20.9348 78.4052L10.0002 74.4254L10.4588 73.1653Z" fill="black"/>
<path d="M37.4413 49.7391C36.9738 50.2962 36.4204 50.6699 35.781 50.8603C35.1387 51.0482 34.4583 51.0459 33.7397 50.8534C33.0182 50.6584 32.3035 50.2638 31.5954 49.6697C30.8932 49.0805 30.3849 48.4488 30.0705 47.7746C29.7561 47.1003 29.6383 46.4304 29.7172 45.7648C29.7961 45.0991 30.0717 44.4849 30.5441 43.9219C30.9093 43.4867 31.2704 43.2037 31.6273 43.073C31.9837 42.937 32.3094 42.8789 32.6042 42.8988C32.8985 42.9134 33.1354 42.9317 33.3147 42.9536L33.3878 42.8666L30.0973 40.1055L30.9592 39.0783L39.8732 46.558L39.0405 47.5504L38.0133 46.6885L37.911 46.8103C37.9696 46.988 38.0333 47.2244 38.1021 47.5196C38.168 47.8122 38.1652 48.1486 38.0936 48.5285C38.0191 48.9061 37.8016 49.3096 37.4413 49.7391ZM36.6354 48.8255C36.9812 48.4135 37.166 47.9752 37.1899 47.5106C37.2109 47.0437 37.0919 46.5755 36.8331 46.1061C36.5713 45.6343 36.188 45.1866 35.6831 44.7629C35.184 44.3441 34.6864 44.0502 34.1904 43.8812C33.6914 43.7098 33.2182 43.6786 32.7707 43.7876C32.3202 43.8943 31.9197 44.1565 31.5691 44.5743C31.2039 45.0096 31.0112 45.466 30.9912 45.9437C30.9707 46.416 31.0896 46.8842 31.348 47.3482C31.6059 47.8069 31.9699 48.2335 32.44 48.6279C32.9158 49.0272 33.4091 49.3175 33.9196 49.4987C34.4297 49.6745 34.9199 49.715 35.3902 49.6201C35.86 49.5198 36.2751 49.255 36.6354 48.8255Z" fill="black"/>
<path d="M49.1993 37.8942C48.5958 38.4006 47.9457 38.7013 47.2491 38.7963C46.5554 38.8889 45.8642 38.784 45.1754 38.4818C44.4896 38.1771 43.8569 37.6795 43.2774 36.9889C42.6931 36.2925 42.3092 35.5787 42.1258 34.8474C41.9454 34.1138 41.9609 33.4134 42.1725 32.7463C42.3871 32.0768 42.7961 31.4888 43.3996 30.9823C44.0032 30.4759 44.6518 30.1764 45.3455 30.0838C46.0421 29.9888 46.7346 30.0951 47.4229 30.4027C48.114 30.7079 48.7518 31.2086 49.3362 31.905C49.9156 32.5956 50.2944 33.3063 50.4724 34.0371C50.6534 34.7654 50.6366 35.4643 50.4221 36.1339C50.2105 36.801 49.8029 37.3877 49.1993 37.8942ZM48.4251 36.9714C48.8835 36.5867 49.1621 36.1527 49.2609 35.6693C49.3597 35.1859 49.3194 34.6931 49.1402 34.1907C48.961 33.6884 48.6839 33.2138 48.309 32.7669C47.934 32.3201 47.5135 31.9633 47.0475 31.6967C46.5815 31.4301 46.1007 31.302 45.605 31.3124C45.1094 31.3228 44.6324 31.5204 44.1739 31.9051C43.7154 32.2898 43.438 32.7253 43.3417 33.2116C43.2454 33.6979 43.2881 34.1936 43.4697 34.6988C43.6514 35.2041 43.9297 35.6801 44.3046 36.127C44.6796 36.5738 45.0989 36.9291 45.5624 37.1928C46.026 37.4566 46.5044 37.5818 46.9976 37.5684C47.4908 37.5551 47.9666 37.3561 48.4251 36.9714Z" fill="black"/>
<path d="M59.8961 29.8083L53.2296 23.5798L54.4499 22.8753L59.4244 27.7187L59.5032 27.6733L57.7762 20.9548L59.0162 20.2389L63.94 25.0854L64.0187 25.04L62.3228 18.3298L63.5432 17.6253L65.6039 26.5129L64.4624 27.172L59.4568 22.3202L59.3387 22.3884L61.0376 29.1492L59.8961 29.8083Z" fill="black"/>
<path d="M73.5983 17.0974L75.3939 22.0308L74.1339 22.4894L71.149 14.2884L72.3663 13.8454L72.8327 15.1268L72.9395 15.0879C72.9801 14.6015 73.1502 14.1607 73.4498 13.7654C73.748 13.3666 74.2068 13.0545 74.8262 12.8291C75.3814 12.627 75.9088 12.5641 76.4081 12.6403C76.9062 12.713 77.3545 12.9368 77.753 13.3117C78.1502 13.6831 78.4757 14.2177 78.7296 14.9153L80.6263 20.1263L79.3663 20.585L77.5007 15.4594C77.2662 14.8151 76.9162 14.3741 76.4508 14.1364C75.9841 13.8951 75.4588 13.8807 74.8751 14.0932C74.4729 14.2396 74.1451 14.4576 73.8918 14.7473C73.642 15.0357 73.4873 15.3803 73.4275 15.7809C73.3678 16.1816 73.4247 16.6204 73.5983 17.0974Z" fill="black"/>
</svg>
